<svg xmlns="http://www.w3.org/2000/svg" width="50" height="50" viewBox="0 0 50 50"><g transform="translate(5.093 3.157)"><path d="M25,0A25,25,0,1,1,0,25,25,25,0,0,1,25,0Z" transform="translate(-5.093 -3.157)" fill="#4e4dee"/><path d="M7.4,31.216l6.994,13.469,6.722-16.546L7.4,31.216Z" transform="translate(1.073 -2.227)" fill="#00dc5a" opacity="0.7"/><path d="M26.014,26.86,7.4,31.059l11.646,2.023Z" transform="translate(1.072 -2.07)" fill="#00dc5a" opacity="0.7"/><path d="M0,33.105l8.73,2.856L6.49,31.647,0,33.105Z" transform="translate(1.981 -2.657)" fill="#00dc5a" opacity="0.5"/><path d="M31.669,27.6l-3.334-.741L26.3,28.677Z" transform="translate(-1.248 -2.07)" fill="#00dc5a" opacity="0.9"/><path d="M16.616,21.987,32.379,12.26l-7.017-4.5L16.616,21.987Z" transform="translate(-0.059 0.276)" fill="#ff7900" opacity="0.8"/><path d="M14.5,0l6.66,13.217L25.1,6.8Z" transform="translate(0.201 1.228)" fill="#ff7900" opacity="0.6"/><path d="M34.619,6.763l-8.033.87,7.017,4.5.713-3.68Z" transform="translate(-1.283 0.398)" fill="#ff7900" opacity="0.7"/><path d="M40.195,8l-4.823.626L35.7,6.763Z" transform="translate(-2.362 0.398)" fill="#ff7900" opacity="0.9"/><path d="M22.088,14.8l1.869,3.7,9.095-5.612L22.088,14.8Z" transform="translate(-0.731 -0.355)" fill="#ff7900" opacity="0.6"/></g></svg>