<svg xmlns="http://www.w3.org/2000/svg" xmlns:xlink="http://www.w3.org/1999/xlink" width="50" height="50" viewBox="0 0 50 50"><defs><clipPath id="a"><rect width="41.667" height="41.667" transform="translate(0 0)" fill="#fff"/></clipPath></defs><g transform="translate(5.093 3.157)"><circle cx="25" cy="25" r="25" transform="translate(-5.093 -3.157)" fill="#c5e9f6"/><g transform="translate(-0.926 1.01)" clip-path="url(#a)"><path d="M41.316,21.263A20.129,20.129,0,0,1,21.346,41.547,20.129,20.129,0,0,1,1.376,21.263,20.128,20.128,0,0,1,21.346.982,20.128,20.128,0,0,1,41.316,21.263Z" transform="translate(-0.507 -0.281)" fill="#c5e9f6"/><path d="M38.112,36.678a26.994,26.994,0,0,0,1.864-5.23c.172-1.574.519-4.723-.58-6.936,0,0,3.954,2.846.17-4.352s-6.33-6.864-6.33-6.864,3.3-2.944-.394-2.6l-3.693.348S32.111,7.225,27.8,8.777s-4.917,3.48-4.917,3.48-5.589-3.029-7.6-3.116-3.135,1.008-.53,2.392c0,0-3.336-.47-4.954.066s-3.044,3-3.044,3-4.243,3.626-5.6,7.359-.262,6.75,2.75,2.309a43.848,43.848,0,0,0-2.4,4.484A12.688,12.688,0,0,0,.718,33.5c-.019,1.807,1.992.406,1.992.406.426,3.207,7.18,9.083,18.39,8.683s15.336-6.745,15.336-6.745S36.427,38.84,38.112,36.678Z" transform="translate(-0.054 -4.527)" fill="#fff"/><path d="M13.724,41.9C7.328,40.48,2.9,36.777,2.2,33.977a2.174,2.174,0,0,1-1.37.344c-.322-.072-.7-.33-.694-1.155a12.832,12.832,0,0,1,.805-4.844,23.508,23.508,0,0,1,1.149-2.316,1.467,1.467,0,0,1-1.171.366.988.988,0,0,1-.65-.533c-.45-.836-.324-2.525.322-4.305C1.9,17.916,5.8,14.467,6.229,14.1c.2-.329,1.564-2.544,3.162-3.073a11.749,11.749,0,0,1,3.987-.2c-.7-.56-.787-1.025-.7-1.35.166-.613,1.061-.977,2.28-.924a3.745,3.745,0,0,1,.673.1,37.063,37.063,0,0,1,6.8,2.924c.332-.61,1.466-2.117,4.947-3.37a4.051,4.051,0,0,1,2.028-.352.752.752,0,0,1,.6.491c.206.588-.3,1.5-.67,2.066l3.149-.295a4.052,4.052,0,0,1,1.226.031.892.892,0,0,1,.77.626c.163.643-.546,1.508-1.036,2.011.937.268,3.146,1.487,6,6.923,1.941,3.692,1.783,4.625,1.5,5.01a.773.773,0,0,1-.86.237,2.406,2.406,0,0,1-.509-.182,15.472,15.472,0,0,1,.308,6.369A26.493,26.493,0,0,1,38,36.447a.36.36,0,0,1-.03.049c-.528.678-.956.954-1.349.867-.459-.1-.648-.685-.723-1.18a14.721,14.721,0,0,1-3.129,2.761,22.64,22.64,0,0,1-12,3.565A28.008,28.008,0,0,1,13.724,41.9ZM2.43,33.326a.275.275,0,0,1,.049.018.25.25,0,0,1,.143.195c.3,2.236,4.064,6.279,11.211,7.862a27.557,27.557,0,0,0,6.924.6c10.953-.388,15.094-6.569,15.136-6.632a.249.249,0,0,1,.457.139c0,.6.155,1.312.383,1.362.128.028.411-.134.829-.663a26.114,26.114,0,0,0,1.829-5.122c.166-1.509.51-4.648-.555-6.8a.258.258,0,0,1,.06-.305.25.25,0,0,1,.308-.015,3.442,3.442,0,0,0,.992.489c.125.027.289.041.352-.047.113-.15.33-.91-1.54-4.467-2.91-5.533-5.03-6.53-5.807-6.7a.989.989,0,0,0-.275-.031.253.253,0,0,1-.192-.441c.585-.525,1.366-1.453,1.259-1.873-.064-.255-.6-.364-1.47-.28l-3.691.346a.251.251,0,0,1-.243-.13.259.259,0,0,1,.025-.278c.467-.6,1.061-1.635.919-2.041-.02-.06-.069-.13-.235-.167a3.539,3.539,0,0,0-1.756.334c-4.107,1.477-4.756,3.3-4.761,3.318a.262.262,0,0,1-.143.156.258.258,0,0,1-.211-.009,39.863,39.863,0,0,0-6.908-3,3.569,3.569,0,0,0-.587-.088c-1.045-.043-1.7.25-1.776.55-.073.269.25.767,1.376,1.364a.252.252,0,0,1,.119.3.246.246,0,0,1-.271.173c-.033,0-3.3-.453-4.842.058-1.51.5-2.893,2.863-2.907,2.884a.259.259,0,0,1-.054.068c-.042.036-4.209,3.629-5.525,7.252C.379,23.572.4,25.029.7,25.6a.5.5,0,0,0,.322.284c.189.042.916.012,2.344-2.09a.247.247,0,0,1,.341-.069.251.251,0,0,1,.075.343A44.062,44.062,0,0,0,1.4,28.51a12.633,12.633,0,0,0-.769,4.643c-.006.6.227.656.305.674a2.223,2.223,0,0,0,1.3-.462A.255.255,0,0,1,2.43,33.326Z" transform="translate(0.28 -4.19)" fill="#080046"/><path d="M43.573,45.341c.314,5.592-5.34,10.494-12.626,10.949S17.5,52.585,17.189,47,22.531,36.5,29.816,36.047,43.262,39.753,43.573,45.341Z" transform="translate(-9.542 -20.312)" fill="#27aae1"/><path d="M26.726,56.012a14.031,14.031,0,0,1-7.045-3.242,8.823,8.823,0,0,1-3.074-6.1c-.321-5.722,5.449-10.751,12.863-11.216a17.2,17.2,0,0,1,3.9.2,14.032,14.032,0,0,1,7.045,3.24,8.813,8.813,0,0,1,3.074,6.1c.322,5.719-5.45,10.75-12.861,11.214A17.121,17.121,0,0,1,26.726,56.012Zm6.56-19.86a16.7,16.7,0,0,0-3.789-.188c-7.138.447-12.7,5.239-12.392,10.679.239,4.308,4.231,7.953,9.7,8.867a16.729,16.729,0,0,0,3.79.191c7.136-.448,12.7-5.239,12.392-10.68C42.753,40.713,38.76,37.066,33.287,36.152Z" transform="translate(-9.209 -19.975)" fill="#130f43"/><path d="M39.974,57.3a.645.645,0,1,1-.563-.726A.647.647,0,0,1,39.974,57.3Z" transform="translate(-21.842 -32.066)"/><path d="M38.768,57.756a1,1,0,1,1,1.091-.872A.989.989,0,0,1,38.768,57.756Zm.153-1.3a.315.315,0,1,0,.271.349A.313.313,0,0,0,38.922,56.456Z" transform="translate(-21.394 -31.611)"/><path d="M38.336,57.653a1.3,1.3,0,1,1,1.42-1.137A1.289,1.289,0,0,1,38.336,57.653Z" transform="translate(-20.997 -31.208)"/><path d="M39.048,55.869a.957.957,0,1,0,.822,1.062A.952.952,0,0,0,39.048,55.869Z" transform="translate(-21.444 -31.663)"/><path d="M39.134,57.845a.74.74,0,1,1,.811-.65A.735.735,0,0,1,39.134,57.845Zm.154-1.3a.572.572,0,1,0,.492.633A.567.567,0,0,0,39.288,56.543Z" transform="translate(-21.73 -31.953)"/><path d="M38.646,57.729a1.081,1.081,0,1,1,1.184-.949A1.075,1.075,0,0,1,38.646,57.729Zm.155-1.3a.231.231,0,0,0-.253.2c-.03.255.422.305.452.053A.23.23,0,0,0,38.8,56.427Z" transform="translate(-21.282 -31.498)"/><path d="M38.214,57.626a1.381,1.381,0,1,1,1.512-1.21A1.371,1.371,0,0,1,38.214,57.626Z" transform="translate(-20.886 -31.098)"/><path d="M38.8,55.8a1.04,1.04,0,1,0,.913,1.139A1.033,1.033,0,0,0,38.8,55.8Z" transform="translate(-21.261 -31.625)"/><path d="M55.761,57.254a.645.645,0,1,1-.564-.726A.649.649,0,0,1,55.761,57.254Z" transform="translate(-30.869 -32.041)"/><path d="M54.554,57.711a1,1,0,1,1,1.089-.873A.989.989,0,0,1,54.554,57.711Zm.153-1.3a.315.315,0,1,0,.27.349A.313.313,0,0,0,54.708,56.408Z" transform="translate(-30.42 -31.584)"/><path d="M54.122,57.614a1.3,1.3,0,1,1,1.42-1.138A1.287,1.287,0,0,1,54.122,57.614Z" transform="translate(-30.024 -31.187)"/><path d="M54.835,55.831a.956.956,0,1,0,.822,1.058A.948.948,0,0,0,54.835,55.831Z" transform="translate(-30.472 -31.641)"/><path d="M54.921,57.8a.74.74,0,1,1,.812-.65A.734.734,0,0,1,54.921,57.8Zm.155-1.3a.572.572,0,1,0,.492.634A.571.571,0,0,0,55.076,56.5Z" transform="translate(-30.757 -31.926)"/><path d="M54.436,57.683a1.081,1.081,0,1,1,1.184-.948A1.073,1.073,0,0,1,54.436,57.683Zm.154-1.3a.233.233,0,0,0-.253.2c-.03.254.422.307.453.054A.234.234,0,0,0,54.59,56.381Z" transform="translate(-30.312 -31.472)"/><path d="M54,57.584a1.382,1.382,0,1,1,1.512-1.214A1.373,1.373,0,0,1,54,57.584Z" transform="translate(-29.915 -31.072)"/><path d="M54.586,55.5a1.041,1.041,0,1,0,.913,1.138A1.033,1.033,0,0,0,54.586,55.5Z" transform="translate(-30.286 -31.453)"/><path d="M38.566,66.833l.465-2.813L40.313,66.5" transform="translate(-21.772 -36.327)" fill="#fff"/><path d="M38.131,66.6l-.014,0a.251.251,0,0,1-.2-.293l.512-2.809a.252.252,0,0,1,.21-.2.246.246,0,0,1,.259.135l1.239,2.5a.255.255,0,0,1-.111.341.247.247,0,0,1-.334-.11l-.9-1.833-.376,2.064A.254.254,0,0,1,38.131,66.6Z" transform="translate(-21.398 -35.91)" fill="#fff"/><path d="M53.423,66.454l1.522-2.668.511,3.019" transform="translate(-30.268 -36.193)" fill="#fff"/><path d="M55.021,66.871a.248.248,0,0,1-.216-.21l-.36-2.342-1.209,2.045a.243.243,0,0,1-.34.087.255.255,0,0,1-.085-.347l1.564-2.645a.248.248,0,0,1,.459.089L55.3,66.58a.253.253,0,0,1-.207.289A.179.179,0,0,1,55.021,66.871Z" transform="translate(-29.897 -35.936)" fill="#fff"/><path d="M45.679,66a.249.249,0,0,0-.319-.15,2.471,2.471,0,0,0-1.424,2.124,35.34,35.34,0,0,0-5.334-.7,17.234,17.234,0,0,0-4.787.776c-.152-1.54-.955-2.024-1.625-2.155a.254.254,0,0,0-.1.5c.786.152,1.205.829,1.245,2.009A1.726,1.726,0,0,1,32.57,70a.256.256,0,0,0-.1.345.246.246,0,0,0,.194.131.231.231,0,0,0,.143-.029,2.222,2.222,0,0,0,1.029-1.869,17.16,17.16,0,0,1,4.755-.794,36.1,36.1,0,0,1,5.317.7,1.846,1.846,0,0,0,.928,1.75.231.231,0,0,0,.113.041.243.243,0,0,0,.233-.113.25.25,0,0,0-.068-.35c-.554-.373-.772-.692-.692-1.7a1.994,1.994,0,0,1,1.11-1.791A.258.258,0,0,0,45.679,66Z" transform="translate(-17.955 -37.366)" fill="#080046"/><path d="M17.591,16.239a14.129,14.129,0,0,1-3.5-4.52c-.9-1.933-2.054-1.674-2.792-.549-.957,1.451-2.028,5.716,2.016,9.716l2.129-1.369Z" transform="translate(-5.677 -5.606)" fill="#27aae1"/><path d="M12.948,20.867l-.142-.14c-4.3-4.251-2.935-8.688-2.048-10.039a1.681,1.681,0,0,1,1.8-.942,2.512,2.512,0,0,1,1.424,1.521,13.87,13.87,0,0,0,3.423,4.43l.181.146-2.3,3.518Zm-.524-10.631c-.587-.163-1.07.456-1.252.731-.814,1.239-2.042,5.29,1.845,9.258l1.913-1.231,1.989-3.041a14.635,14.635,0,0,1-3.387-4.465C13.2,10.777,12.82,10.345,12.424,10.235Z" transform="translate(-5.34 -5.267)" fill="#130f43"/><path d="M20.922,21.914c-1.01.32-4.363,1.668-5.555,3.171s.155,1.427,1.491.861-3.357,1.089-4.881,4.33" transform="translate(-6.569 -12.251)" fill="#fff"/><path d="M11.576,30.18a.2.2,0,0,1-.042-.015.25.25,0,0,1-.116-.334,9.506,9.506,0,0,1,3.468-3.611.651.651,0,0,1-.457-.241c-.332-.451.225-1.157.408-1.392,1.283-1.618,4.8-2.977,5.677-3.253a.247.247,0,0,1,.312.164.255.255,0,0,1-.166.317c-1.25.4-4.348,1.719-5.433,3.086-.471.6-.4.768-.4.772.069.093.6.108,1.519-.265.076-.035.142-.064.2-.087a.773.773,0,0,0,.082-.039l0,0a.6.6,0,0,1,.167-.04.25.25,0,0,1,.205.221c.024.2-.107.253-.388.371-.037.017-.078.034-.123.053-.927.447-3.562,1.884-4.63,4.151A.246.246,0,0,1,11.576,30.18Z" transform="translate(-6.235 -11.912)" fill="#130f43"/><path d="M71.6,15.366a14.125,14.125,0,0,0,3.168-4.756c.76-1.992,1.932-1.814,2.746-.744,1.057,1.38,2.426,5.558-1.326,9.834l-2.221-1.215Z" transform="translate(-40.662 -4.912)" fill="#27aae1"/><path d="M73.353,18.341l-2.541-3.347.17-.158a13.874,13.874,0,0,0,3.1-4.66A2.512,2.512,0,0,1,75.4,8.558a1.683,1.683,0,0,1,1.864.813c.98,1.285,2.651,5.616-1.336,10.158l-.131.149Zm1.2-7.978a14.651,14.651,0,0,1-3.064,4.693l2.2,2.893,2,1.093c3.6-4.231,2.087-8.186,1.188-9.365-.2-.261-.726-.844-1.3-.641A2.111,2.111,0,0,0,74.55,10.363Z" transform="translate(-40.21 -4.573)" fill="#130f43"/><path d="M65.759,21.9c1.03.248,4.47,1.356,5.765,2.772s-.054,1.434-1.427.963,3.426.85,5.173,3.975" transform="translate(-37.321 -12.245)" fill="#fff"/><path d="M75.021,29.514a.172.172,0,0,0,.04-.018.25.25,0,0,0,.092-.342A9.519,9.519,0,0,0,71.439,25.8a.652.652,0,0,0,.438-.273c.3-.474-.306-1.139-.506-1.359-1.394-1.524-5-2.631-5.892-2.845a.247.247,0,0,0-.3.186.256.256,0,0,0,.188.3c1.274.307,4.458,1.408,5.637,2.7.511.561.452.738.45.742-.062.1-.59.15-1.534-.157-.078-.03-.146-.054-.206-.072a.588.588,0,0,1-.085-.033l0,.005a.574.574,0,0,0-.17-.028.251.251,0,0,0-.189.235c-.009.2.124.244.414.343.038.015.081.028.126.044.956.381,3.685,1.628,4.911,3.815A.245.245,0,0,0,75.021,29.514Z" transform="translate(-36.987 -11.907)" fill="#130f43"/><path d="M37.717,56.771a1.706,1.706,0,1,1,1.944-1.428A1.709,1.709,0,0,1,37.717,56.771Z" transform="translate(-20.458 -30.242)"/><path d="M41.4,55.58a.433.433,0,1,0-.433-.433A.433.433,0,0,0,41.4,55.58Z" transform="translate(-23.144 -31.005)" fill="#fff"/><path d="M41.695,58a.189.189,0,1,0-.189-.189A.189.189,0,0,0,41.695,58Z" transform="translate(-23.453 -32.67)" fill="#fff"/><path d="M53.9,56.877a1.707,1.707,0,1,1,1.945-1.429A1.71,1.71,0,0,1,53.9,56.877Z" transform="translate(-29.715 -30.302)"/><path d="M57.627,55.548a.433.433,0,1,0-.433-.433A.433.433,0,0,0,57.627,55.548Z" transform="translate(-32.424 -30.987)" fill="#fff"/><path d="M57.922,57.973a.19.19,0,1,0-.19-.19A.19.19,0,0,0,57.922,57.973Z" transform="translate(-32.731 -32.652)" fill="#fff"/></g></g></svg>