<svg xmlns="http://www.w3.org/2000/svg" xmlns:xlink="http://www.w3.org/1999/xlink" width="28" height="27.582" viewBox="0 0 28 27.582"><defs><clipPath id="a"><rect width="28" height="27.582" transform="translate(-0.278 0.353)" fill="none"/></clipPath></defs><g transform="translate(0.278 -0.353)" clip-path="url(#a)"><path d="M13.615,13.684c-6.927,0-12.075-2.47-12.075-5.772S6.735,2.14,13.615,2.14,25.69,4.622,25.69,7.912,20.542,13.684,13.615,13.684Zm0-9.8c-6.1,0-10.39,2.124-10.39,4.04s4.248,4.029,10.39,4.029S24,9.828,24,7.924s-4.294-4.04-10.39-4.04Z" transform="translate(0.803 0.712)" fill="#fff"/><path d="M13.615,18.261a19.094,19.094,0,0,1-9.639-2.24A4.341,4.341,0,0,1,1.54,12.488,4.364,4.364,0,0,1,3.987,8.944a.877.877,0,0,1,1.154.289.866.866,0,0,1-.277,1.154c-1.016.681-1.639,1.408-1.639,2.1s.577,1.42,1.628,2.066a17.316,17.316,0,0,0,8.762,1.974,17.316,17.316,0,0,0,8.716-1.974C23.382,13.908,24,13.181,24,12.488s-.577-1.42-1.628-2.066A.866.866,0,0,1,22.1,9.268a.877.877,0,0,1,1.154-.289,4.364,4.364,0,0,1,2.436,3.509,4.364,4.364,0,0,1-2.447,3.544,19.14,19.14,0,0,1-9.628,2.228Z" transform="translate(0.803 1.746)" fill="#fff"/><path d="M13.615,23.11c-6.927,0-12.075-2.482-12.075-5.772a4.364,4.364,0,0,1,2.447-3.533.866.866,0,0,1,1.154.277.877.877,0,0,1-.277,1.154c-1.016.681-1.639,1.42-1.639,2.1,0,1.916,4.248,4.04,10.39,4.04S24,19.254,24,17.338c0-.681-.577-1.42-1.628-2.055a.877.877,0,0,1-.277-1.154.866.866,0,0,1,1.154-.277A4.364,4.364,0,0,1,25.7,17.384C25.69,20.628,20.542,23.11,13.615,23.11Z" transform="translate(0.803 2.496)" fill="#fff"/></g></svg>