<svg xmlns="http://www.w3.org/2000/svg" width="50" height="50" viewBox="0 0 50 50"><g transform="translate(5.093 3.157)"><circle cx="25" cy="25" r="25" transform="translate(-5.093 -3.157)" fill="#fff"/><g transform="translate(-5.093 -3.157)"><path d="M6.251,8.357A25.009,25.009,0,1,1,32.46,48.813q-3.24-15.669-6.429-31.347c4.624,3.584,9.206,7.219,13.813,10.837.391-.391.781-.786,1.176-1.172C35.657,20.336,30.336,13.487,24.948,6.706Q16.935,16.931,8.9,27.131c.395.386.786.781,1.18,1.172q6.9-5.435,13.813-10.858Q20.7,33.126,17.47,48.8A24,24,0,0,1,9.291,44.46,25.007,25.007,0,0,1,.438,29.882a26.82,26.82,0,0,1-.425-6.646A24.926,24.926,0,0,1,6.251,8.357Z" transform="translate(0.036 0.051)" fill="#ea5d14"/></g></g></svg>