<svg xmlns="http://www.w3.org/2000/svg" xmlns:xlink="http://www.w3.org/1999/xlink" width="28" height="28" viewBox="0 0 28 28"><defs><clipPath id="a"><rect width="28" height="28" transform="translate(-0.215 -0.207)" fill="none"/></clipPath></defs><g transform="translate(0.215 0.207)" clip-path="url(#a)"><path d="M23.2,24.808H3.624a.864.864,0,0,1-.864-.864V11.025a.864.864,0,0,1,.276-.668l9.811-7.991a.841.841,0,0,1,1.082,0l9.834,7.991a.864.864,0,0,1,.311.668v12.92a.864.864,0,0,1-.875.864ZM4.464,23.081H22.335V11.428L13.4,4.151,4.464,11.428Z" transform="translate(0.544 0.226)" fill="#fff"/></g></svg>