<svg xmlns="http://www.w3.org/2000/svg" width="50" height="50" viewBox="0 0 50 50"><g transform="translate(0 -0.1)"><circle cx="25" cy="25" r="25" transform="translate(0 0.1)" fill="#fff"/><g transform="translate(0 0.1)"><path d="M0,26.394V23.741a1.8,1.8,0,0,0,.065-.586,17.581,17.581,0,0,1,.26-2.245,22.922,22.922,0,0,1,.586-2.587A23.342,23.342,0,0,1,2.148,14.89,24.66,24.66,0,0,1,7.289,7.422a25.911,25.911,0,0,1,3.14-2.668A24.338,24.338,0,0,1,12.9,3.191a26.144,26.144,0,0,1,2.815-1.334,24.331,24.331,0,0,1,2.392-.814A22.1,22.1,0,0,1,20.648.458,20.39,20.39,0,0,1,23.088.165,1.146,1.146,0,0,0,23.56.1h2.9c.033.049.1.033.146.049.553.049,1.106.081,1.643.163a22.667,22.667,0,0,1,2.782.521c.683.163,1.367.374,2.034.6a24.055,24.055,0,0,1,4.133,1.839,24.643,24.643,0,0,1,4.523,3.238A23.38,23.38,0,0,1,44.208,9.1a25.734,25.734,0,0,1,2.424,3.449,23.811,23.811,0,0,1,1.578,3.238,20.77,20.77,0,0,1,.7,2c.179.6.342,1.22.488,1.839a17.424,17.424,0,0,1,.342,1.839,14.564,14.564,0,0,1,.2,2.05,3.025,3.025,0,0,0,.065.537v2.115c0,.033-.016.049-.016.081-.065.944-.13,1.871-.277,2.8-.1.6-.212,1.188-.342,1.774a23.68,23.68,0,0,1-.683,2.392,24.711,24.711,0,0,1-3.157,6.215,22.983,22.983,0,0,1-1.757,2.229,24.708,24.708,0,0,1-3.433,3.222,25.778,25.778,0,0,1-3.075,2.034c-.765.423-1.562.814-2.359,1.171a26.461,26.461,0,0,1-2.685.976c-.5.146-1.025.293-1.529.407-.635.146-1.269.277-1.9.358-.586.081-1.171.163-1.757.2a2.232,2.232,0,0,0-.651.081H23.56c-.033-.049-.1-.049-.146-.049-.83-.049-1.676-.146-2.489-.277a25.033,25.033,0,0,1-8.07-2.831A24.961,24.961,0,0,1,8.3,43.689a25.383,25.383,0,0,1-2.506-2.62,25.964,25.964,0,0,1-2.376-3.4,22.391,22.391,0,0,1-1.529-3.14q-.464-1.147-.83-2.343a21.555,21.555,0,0,1-.586-2.457C.358,29.111.26,28.492.2,27.858c-.033-.325-.065-.651-.081-.993C.049,26.686.081,26.54,0,26.394Zm49.073-1.318A24.081,24.081,0,1,0,24.992,49.156,24.075,24.075,0,0,0,49.073,25.076Z" transform="translate(0 -0.1)" fill="#f2ca66"/><path d="M53.818,29.751A24.159,24.159,0,1,1,29.684,5.6,24.163,24.163,0,0,1,53.818,29.751Zm-9.154-4.716a6.4,6.4,0,0,1,1.8.734c.065.033.082.016.114-.033a4.152,4.152,0,0,1,.261-.457c.049-.065.033-.114-.016-.18a3.119,3.119,0,0,0-.8-.669c-.261-.163-.473-.375-.718-.555a5.341,5.341,0,0,0-1.371-.669c-.277-.1-.571-.163-.9-.277h.522c.016,0,.049.016.065.016a5.243,5.243,0,0,1,2.415.751.079.079,0,0,0,.114-.016c.18-.147.392-.261.587-.392A.486.486,0,0,0,46.981,23a1.155,1.155,0,0,0-.441-1.4,6.238,6.238,0,0,0-.963-.571,30.127,30.127,0,0,0-10.868-2.97,43.682,43.682,0,0,0-5.467-.131,48.962,48.962,0,0,0-6.185.587,32.772,32.772,0,0,0-7.931,2.317,11.13,11.13,0,0,0-3.133,1.958,1.016,1.016,0,0,0-.343.946c-.033.261.163.408.294.587.114.2.212.18.375.049a3.6,3.6,0,0,1,.522-.343,22.35,22.35,0,0,1,4.014-1.844c.049-.016.1-.065.163-.016-.31.163-.636.326-.946.49a27.927,27.927,0,0,0-4.422,2.97.582.582,0,0,0-.277.653,1.213,1.213,0,0,0,.049.408c.033.114.082.1.163.049A13.136,13.136,0,0,1,14.3,25.378c.016.016.114,0,.033.065a.975.975,0,0,1-.18.1,29.5,29.5,0,0,0-2.676,2.024.441.441,0,0,0-.212.359,2.093,2.093,0,0,0,.31.963c.033-.016.049-.033.082-.049a8.18,8.18,0,0,1,2.578-1.616c.555-.245,1.11-.424,1.681-.636.277-.1.555-.18.832-.277a.074.074,0,0,1,0,.082,3.262,3.262,0,0,0-.343.163,17.75,17.75,0,0,0-2.856,1.518,10.191,10.191,0,0,0-2.04,1.8.574.574,0,0,0-.2.473,3.413,3.413,0,0,0,.261.881.468.468,0,0,1,.261-.294,20.123,20.123,0,0,1,2.317-1.11,33.166,33.166,0,0,1,5.711-1.665,53.826,53.826,0,0,1,9.416-1.175,42.253,42.253,0,0,1,9.3.685,34.516,34.516,0,0,1,9.432,3.231c.261.131.245.131.277-.163v-.016a1.39,1.39,0,0,0-.6-1.436c-.212-.147-.408-.294-.636-.424a22.288,22.288,0,0,0-4.129-2.089,7.564,7.564,0,0,1,1.811.457c.016,0,.016.016.033.016A24.123,24.123,0,0,1,47.275,28.3a.079.079,0,0,0,.131-.033c.245-.343.294-.539.016-.849a4.592,4.592,0,0,0-.881-.9A7.049,7.049,0,0,0,44.37,25.2c-.392-.147-.8-.261-1.208-.392a8.054,8.054,0,0,1,1.4.18.147.147,0,0,1,.082.016C44.631,25.019,44.647,25.019,44.664,25.035Zm2.154,7.376a6.054,6.054,0,0,0-.2-1.061c-.016-.1-.049-.2-.065-.31a.4.4,0,0,0-.294-.343c-.636-.277-1.273-.555-1.926-.8a36.678,36.678,0,0,0-11.145-2.3,46.257,46.257,0,0,0-8.094.277,56.73,56.73,0,0,0-5.728.979,30.5,30.5,0,0,0-5.45,1.681c-.718.31-.718.31-.865,1.044V31.6a2.052,2.052,0,0,0-.082.539.236.236,0,0,0-.033.114,17.249,17.249,0,0,0-.2,3.035c.016.539.065,1.061.114,1.6,0,.049-.016.163.1.1l.832-.49a6.025,6.025,0,0,1,.914-.31c-.294.245-.6.441-.865.7a5.292,5.292,0,0,0-.8.8.15.15,0,0,0-.033.163c.065.277.131.555.179.832.033.131.082.1.147.033a12.215,12.215,0,0,1,1-.832c.245-.147.473-.31.718-.457l.033.033a6.846,6.846,0,0,0-.636.734A8.169,8.169,0,0,0,13.5,39.51a.176.176,0,0,0-.033.131,7.644,7.644,0,0,0,.408,1.044,6.834,6.834,0,0,1,1.175-1.534,2.6,2.6,0,0,1,.392-.326l.033.033a5.358,5.358,0,0,0-.326.506l-.033.033a6.874,6.874,0,0,0-.832,1.991.216.216,0,0,0,.049.18,11.059,11.059,0,0,0,5.45,4.749,25.353,25.353,0,0,0,7.784,1.6,38.408,38.408,0,0,0,4.112.016,31.615,31.615,0,0,0,6.054-.832,13.885,13.885,0,0,0,5.516-2.611,8.78,8.78,0,0,0,2.187-2.529c.033-.065.1-.114.065-.2a7.477,7.477,0,0,1-.245-.8A5.125,5.125,0,0,0,44.5,39.51c-.049-.147-.163-.245-.212-.408.1.065.2.147.277.212a8.354,8.354,0,0,1,1.289,1.632c0,.016.016.016.049.016.147-.31.245-.636.359-.946a.624.624,0,0,0-.065-.685c-.31-.424-.587-.881-.93-1.273-.18-.212-.375-.424-.587-.669a2.9,2.9,0,0,1,.7.392c.424.326.832.669,1.24,1.044q.1-.514.2-.979a.15.15,0,0,0-.033-.163,5.77,5.77,0,0,0-.946-.946,8.544,8.544,0,0,0-.881-.685,5.588,5.588,0,0,1,1,.359c.294.163.6.343.9.506.131.082.114,0,.131-.1a15.912,15.912,0,0,0-.016-3.525A4.321,4.321,0,0,0,46.818,32.411ZM21.1,18.3c-.033-.049-.065-.065-.082-.1a20.9,20.9,0,0,0-3.769-3.215,6.767,6.767,0,0,0-1.877-.946.691.691,0,0,0-.963.441,3.982,3.982,0,0,0-.326,1.142,24.078,24.078,0,0,0-.228,2.644c-.049.8-.049,1.583-.033,2.383,0,.131.016.2.179.114.245-.131.49-.245.734-.359a.159.159,0,0,0,.114-.2,17.841,17.841,0,0,1-.016-2.089,4.979,4.979,0,0,1,.114-1.093.611.611,0,0,1,.816-.49,2.6,2.6,0,0,1,.751.343,8.575,8.575,0,0,1,1.909,1.6.773.773,0,0,0,.963.261C19.925,18.557,20.5,18.459,21.1,18.3Zm24.4,2.04c.016-.375.033-.734.016-1.093a32.573,32.573,0,0,0-.294-3.77,3.608,3.608,0,0,0-.343-1.077.68.68,0,0,0-.9-.392,3.136,3.136,0,0,0-.685.261,16.988,16.988,0,0,0-4.716,3.7c-.016.016-.016.033-.016.065.7.147,1.387.294,2.072.49.082.016.114-.016.163-.065a15.047,15.047,0,0,1,1.795-1.436,3.071,3.071,0,0,1,.718-.392c.653-.277,1.028-.049,1.11.653V17.3a18.019,18.019,0,0,1,.1,2.48c0,.065-.016.114.065.147C44.876,20.058,45.17,20.205,45.5,20.336ZM15.1,18.867c0,.392,0,.8.033,1.191,0,.1,0,.163.147.1a24.805,24.805,0,0,1,3.084-1.126c.147-.049.114-.1.033-.18-.212-.212-.408-.424-.62-.62a7.593,7.593,0,0,0-1.811-1.322c-.506-.228-.718-.114-.767.441C15.128,17.855,15.111,18.361,15.1,18.867Zm25.962-.228c.033.016.049.033.065.033a28.151,28.151,0,0,1,2.986,1.044c.131.065.131,0,.131-.114a16.5,16.5,0,0,0-.065-1.8,2.839,2.839,0,0,0-.1-.734.312.312,0,0,0-.424-.261,1.394,1.394,0,0,0-.392.147,11.526,11.526,0,0,0-2.154,1.6C41.09,18.59,41.074,18.606,41.057,18.638Zm6.119,12.533c.114.49.212.946.277,1.42,0,.049.016.1.082.065.131-.082.294-.114.343-.261.082-.228.147-.473.212-.7.016-.033.033-.1-.033-.114C47.748,31.5,47.519,31.285,47.177,31.171ZM11.652,31.5c.065.114.114.18.147.245a.966.966,0,0,0,.392.375c.065.033.147.082.179-.033.065-.294.1-.571.163-.881C12.223,31.3,12.027,31.6,11.652,31.5Z" transform="translate(-4.674 -4.774)" fill="#1d1c1c"/><path d="M52.211,152.672a7.219,7.219,0,0,1,.894-.646,6.775,6.775,0,0,0-.945.285c-.135-.03-.118-.135-.152-.21a12.671,12.671,0,0,1-.641-3.529.349.349,0,0,0-.067-.255,1.7,1.7,0,0,1,.084-.5,14.107,14.107,0,0,1,3.544-1.276c1.131-.255,2.278-.481,3.426-.721a41.469,41.469,0,0,1,5.249-.871c.979-.075,1.958-.135,2.937-.165,1.519-.03,3.055-.03,4.574.03.473.015.962.015,1.434.03.878.03,1.755.045,2.65.12.726.06,1.451.135,2.177.24a24.762,24.762,0,0,1,3.325.811c1.418.405,2.835.811,4.236,1.246.371.12.759.225,1.131.33a3.883,3.883,0,0,1,.2.976c-.084.015-.068.075-.084.12a11.5,11.5,0,0,1-.422,2.373,5.865,5.865,0,0,1-.405,1.186,7.33,7.33,0,0,0-1.029-.33,7.664,7.664,0,0,1,.911.631,4.313,4.313,0,0,1-.473.961,3.116,3.116,0,0,0-.726-.36c.219.225.422.42.608.616a8.233,8.233,0,0,1-.709,1.141c-.1-.06-.2-.135-.287-.2.034.15.169.24.219.375-.084-.015-.1.06-.152.105a9.173,9.173,0,0,1-2.042,1.877,13.707,13.707,0,0,1-3.493,1.547,25.179,25.179,0,0,1-3.7.856c-.861.135-1.721.24-2.6.3-.422.03-.844.03-1.266.09-.743.09-1.5.165-2.245.2a23.9,23.9,0,0,1-3.443-.105,26.8,26.8,0,0,1-3.493-.616,20.475,20.475,0,0,1-4.118-1.517,13.43,13.43,0,0,1-2.464-1.562,16.809,16.809,0,0,1-1.333-1.276c.084-.165.236-.3.338-.466.017-.015.034-.03.034-.045-.034-.015-.051-.015-.067.03-.152.075-.253.21-.405.3a3.286,3.286,0,0,1-.624-.871c.2-.24.456-.436.658-.676.017,0,.034-.015.017-.03h-.051c-.253.135-.489.285-.743.42-.135-.03-.152-.165-.2-.255A3.135,3.135,0,0,0,52.211,152.672Zm2.97-.886c.051,0,.084,0,.084-.015l.1-.135a3.362,3.362,0,0,1,1.451-1.1,6.885,6.885,0,0,1,3.308-.33,7.045,7.045,0,0,1,2.464.826c.439.21.844.466,1.266.706a.54.54,0,0,0,.759-.105c.084-.09.152-.18.236-.27a7.272,7.272,0,0,1,1.435-1.457,4.428,4.428,0,0,1,3.392-.841,4.228,4.228,0,0,1,2.177,1.081,10.315,10.315,0,0,1,1.283,1.382.614.614,0,0,0,.962.15,1.033,1.033,0,0,0,.169-.105,12.717,12.717,0,0,1,2.447-1.156,6.408,6.408,0,0,1,3.325-.225,3.867,3.867,0,0,1,2.194,1.321l.557.676a4.732,4.732,0,0,0-.844-1.367,3.52,3.52,0,0,0-2.093-1.216,6.619,6.619,0,0,0-2.97.18,12.117,12.117,0,0,0-3.038,1.4.171.171,0,0,1-.27-.045,9.98,9.98,0,0,0-1.451-1.517,4.82,4.82,0,0,0-4.354-1.021A5.259,5.259,0,0,0,65,150.284a9.127,9.127,0,0,0-.709.856c-.084.12-.152.12-.287.045-.152-.105-.338-.2-.506-.3a8.143,8.143,0,0,0-4.793-1.261A4.082,4.082,0,0,0,55.182,151.786Zm17.349,5.586c.017-.105-.068-.12-.118-.15a7.828,7.828,0,0,0-1.215-.541,5.088,5.088,0,0,1-1.164-.571,1.67,1.67,0,0,1-.81-1.472c.017-.345.017-.691,0-1.021a.279.279,0,0,1,.186-.285,11.886,11.886,0,0,1,1.418-.661c.152-.06.2-.135.186-.27a1.372,1.372,0,0,0-1.266-1.336,5.961,5.961,0,0,0-1.553-.03,1.439,1.439,0,0,0-1.435,1.276.3.3,0,0,0,.236.375,10.968,10.968,0,0,1,1.485.706.24.24,0,0,1,.152.24c-.017.466-.017.931,0,1.412a.884.884,0,0,1-.27.631,3.967,3.967,0,0,1-1.435.916c-.489.21-1,.375-1.5.616a.445.445,0,0,0,.2-.015c.439-.12.894-.24,1.333-.36a4.065,4.065,0,0,0,1.975-1.036c.068-.075.1-.03.152.015a2.963,2.963,0,0,0,1.435.871C71.164,156.937,71.873,157.042,72.531,157.372Zm-.523-10.767a.722.722,0,0,0,.878.691,2.856,2.856,0,0,0,1.856-.841.638.638,0,0,0-.067-1.006,1.209,1.209,0,0,0-1.063-.2,2.154,2.154,0,0,0-1.08.571C72.261,146.065,72.008,146.32,72.008,146.605Zm-7.24.676h.118c.439.045.928-.42.692-.871a1.986,1.986,0,0,0-.253-.39,2.185,2.185,0,0,0-1.789-.8.863.863,0,0,0-.776.45.582.582,0,0,0,.1.721A2.6,2.6,0,0,0,64.768,147.281Zm-.405,1.937a5.339,5.339,0,0,0-5.552-2.162C60.667,147.777,62.506,148.5,64.362,149.218Zm14.362-2.162c-1.485-.676-5.215.766-5.586,2.177C75.012,148.5,76.868,147.777,78.724,147.056Zm4.1,5.211Z" transform="translate(-43.596 -120.329)" fill="#fdfdfd"/><path d="M40.55,92.618c-.033-.18.084-.3.2-.435a10.182,10.182,0,0,1,2.09-1.652,18.96,18.96,0,0,1,2.926-1.4,3.522,3.522,0,0,0,.351-.15.928.928,0,0,0,.418-.18,1.3,1.3,0,0,0-.418.105c-.284.09-.568.165-.853.255,0-.045.033-.06.067-.075.384-.18.786-.36,1.17-.556.1-.045.217-.09.318-.135a.257.257,0,0,0-.15,0,19.215,19.215,0,0,0-2.056.451A17.273,17.273,0,0,0,41.52,89.9c-.351.165-.685.345-1.02.526a.44.44,0,0,1,.217-.33,32.679,32.679,0,0,1,2.742-1.862,1.893,1.893,0,0,0,.184-.09c.067-.06-.017-.045-.033-.06,0-.06.05-.075.084-.105.184-.165.451-.225.6-.42a.11.11,0,0,0,.067-.015l-.017-.015c-.017.015-.033.015-.067.03-.067.015-.134.015-.2.03a13.458,13.458,0,0,0-3.494,1.336c-.1-.27.05-.45.284-.6a29.815,29.815,0,0,1,4.53-2.733c.318-.15.652-.3.97-.451h0a.109.109,0,0,0,.067-.015c.251-.045.418-.24.652-.345a6.5,6.5,0,0,0-1.2.09A13.784,13.784,0,0,0,41.854,86.1c-.318.15-.619.36-.953.481a.884.884,0,0,1,.351-.871,11.292,11.292,0,0,1,3.21-1.8,34.726,34.726,0,0,1,8.125-2.132,52.747,52.747,0,0,1,6.336-.541,49.709,49.709,0,0,1,5.6.12,33.156,33.156,0,0,1,11.134,2.733,5.093,5.093,0,0,1,.986.526,1.035,1.035,0,0,1,.451,1.291,16.347,16.347,0,0,0-2.809-.6,12.253,12.253,0,0,0-1.822-.045,3.191,3.191,0,0,0-.819.12,8.506,8.506,0,0,1,1.906.451h-.535c.351.09.635.165.919.255a5.23,5.23,0,0,1,1.4.616c.251.165.468.36.736.511H75.84a15.268,15.268,0,0,0-3.093-.165c-.2.015-.418.03-.619.06.635.15,1.254.3,1.872.451a.966.966,0,0,1,.568.21,9.371,9.371,0,0,0-1.438-.165c.418.12.836.225,1.237.36a7.757,7.757,0,0,1,2.223,1.216,4.972,4.972,0,0,1,.9.826,2.511,2.511,0,0,1-.451-.12,19.879,19.879,0,0,0-2.959-.811,6.761,6.761,0,0,0-1.237-.12,15.815,15.815,0,0,1,1.488.6c.134.06.318.09.384.24a8.47,8.47,0,0,0-1.856-.42A23.911,23.911,0,0,1,77.094,91.3c.234.12.435.255.652.39a1.251,1.251,0,0,1,.619,1.321.447.447,0,0,1-.234-.135,14.342,14.342,0,0,0-2.24-1.261,26.253,26.253,0,0,0-2.842-1.021c-1.053-.315-2.106-.631-3.176-.886a33.74,33.74,0,0,0-4.447-.721c-1.036-.105-2.073-.18-3.109-.21-1.538-.03-3.076-.045-4.614.06-.619.045-1.237.06-1.856.12-.986.09-1.973.21-2.959.315-1.137.12-2.257.285-3.377.511a39.6,39.6,0,0,0-5.45,1.457A37.224,37.224,0,0,0,40.55,92.618ZM60.778,81.972a49,49,0,0,0-8.342.661c-.936.15-1.872.33-2.792.556s-1.254.616-1.254,1.457c.017.781.067,1.562.117,2.343a13.43,13.43,0,0,0,.134,1.412,1.2,1.2,0,0,0,1.488,1.021c.8-.075,1.6-.24,2.407-.39a33.946,33.946,0,0,1,4.1-.586,48.162,48.162,0,0,1,4.881-.12c1.388.045,2.775.15,4.146.315,1.2.15,2.407.33,3.594.526a.868.868,0,0,0,.953-.39,2.223,2.223,0,0,0,.334-1.156A32.685,32.685,0,0,0,70.474,84a1.375,1.375,0,0,0-1.22-1.351c-.318-.075-.635-.12-.97-.165-.635-.09-1.271-.09-1.889-.165A51.347,51.347,0,0,0,60.778,81.972Zm-14.126,6.8h-.033v.015C46.635,88.789,46.652,88.789,46.652,88.774Z" transform="translate(-34.418 -67.661)" fill="#fdfdfd"/><path d="M60.2,212.5a14.574,14.574,0,0,0,1.345,1.276,12.315,12.315,0,0,0,2.486,1.562,20.781,20.781,0,0,0,4.155,1.517,23.313,23.313,0,0,0,3.525.616,24.42,24.42,0,0,0,3.474.105c.766-.03,1.516-.105,2.265-.2.426-.045.852-.06,1.277-.09.886-.06,1.754-.165,2.623-.3a26.123,26.123,0,0,0,3.73-.856,13.9,13.9,0,0,0,3.525-1.547,8.882,8.882,0,0,0,2.061-1.877c.034-.045.051-.12.153-.105a4.949,4.949,0,0,1,.783,1.336c.1.24.136.5.255.736.034.075-.034.12-.068.18a8.27,8.27,0,0,1-2.282,2.328,15.167,15.167,0,0,1-5.756,2.4,37.169,37.169,0,0,1-6.318.766,40.918,40.918,0,0,1-4.292-.015,29.683,29.683,0,0,1-8.123-1.472,11.231,11.231,0,0,1-5.688-4.37.183.183,0,0,1-.051-.165,5.442,5.442,0,0,1,.869-1.832C60.163,212.515,60.181,212.5,60.2,212.5Z" transform="translate(-50.373 -176.751)" fill="#c3c1c2"/><path d="M40.8,135.319a30.376,30.376,0,0,1,3.611-1.382,37,37,0,0,1,5.449-1.457c1.12-.21,2.24-.375,3.377-.511.986-.105,1.972-.225,2.959-.315.618-.06,1.237-.075,1.855-.12,1.538-.105,3.076-.09,4.614-.06,1.036.015,2.073.105,3.109.21a33.732,33.732,0,0,1,4.446.721c1.07.255,2.123.571,3.176.886a26.249,26.249,0,0,1,2.842,1.021,13.222,13.222,0,0,1,2.24,1.261.822.822,0,0,0,.234.135v.015c-.017.27-.017.27-.284.15a38.137,38.137,0,0,0-9.662-2.973,47.053,47.053,0,0,0-9.528-.631,60.862,60.862,0,0,0-9.645,1.081,36.952,36.952,0,0,0-5.851,1.532,21.715,21.715,0,0,0-2.374,1.021c-.184.09-.184.09-.267.27A2.88,2.88,0,0,1,40.8,135.319Z" transform="translate(-34.673 -109.893)" fill="#c3c1c2"/><path d="M86.613,143.523c-.372-.105-.76-.225-1.132-.33-1.4-.436-2.821-.841-4.24-1.246a25.443,25.443,0,0,0-3.328-.811c-.726-.105-1.453-.2-2.179-.24-.878-.06-1.757-.09-2.652-.12-.473-.015-.963-.015-1.436-.03-1.52-.06-3.057-.045-4.578-.03-.98.015-1.959.075-2.939.165a38.146,38.146,0,0,0-5.253.871c-1.132.24-2.28.466-3.429.721a13.671,13.671,0,0,0-3.547,1.276v-.015c.135-.676.135-.676.9-.961a36.109,36.109,0,0,1,5.642-1.547q2.939-.586,5.929-.9a55.739,55.739,0,0,1,8.378-.255,42.228,42.228,0,0,1,11.537,2.117c.676.225,1.334.481,1.993.736.169.06.287.15.3.315A.785.785,0,0,0,86.613,143.523Z" transform="translate(-44.106 -117.092)" fill="#c3c1c2"/><path d="M63.062,60.956c-.541.135-1.081.24-1.592.405a.711.711,0,0,1-.886-.24,7.891,7.891,0,0,0-1.757-1.472,2.225,2.225,0,0,0-.691-.315.562.562,0,0,0-.751.45,4.49,4.49,0,0,0-.105,1.006,16.391,16.391,0,0,0,.015,1.922.17.17,0,0,1-.105.18c-.225.105-.466.21-.676.33-.135.075-.15.015-.165-.105-.015-.736-.015-1.472.03-2.192.06-.811.075-1.637.21-2.433a3.665,3.665,0,0,1,.3-1.051.646.646,0,0,1,.886-.405,6.227,6.227,0,0,1,1.727.871,19.757,19.757,0,0,1,3.469,2.958Z" transform="translate(-47.053 -47.622)" fill="#fdfdfd"/><path d="M214.567,62.707c-.285-.135-.556-.255-.826-.375-.06-.03-.06-.075-.06-.135a16.572,16.572,0,0,0-.09-2.283V59.9c-.075-.646-.435-.856-1.021-.6a4.645,4.645,0,0,0-.661.36,14.152,14.152,0,0,0-1.652,1.321c-.045.045-.075.09-.15.06-.631-.18-1.261-.315-1.907-.451a.114.114,0,0,0,.015-.06,15.693,15.693,0,0,1,4.34-3.409,3.209,3.209,0,0,1,.631-.24.631.631,0,0,1,.826.36,3.321,3.321,0,0,1,.315.991,29.455,29.455,0,0,1,.27,3.469C214.582,62.031,214.582,62.362,214.567,62.707Z" transform="translate(-173.904 -47.506)" fill="#fdfdfd"/><path d="M64.3,76.227c.015-.466.03-.916.075-1.382.045-.5.24-.616.706-.405a6.6,6.6,0,0,1,1.667,1.216c.2.18.39.375.571.571.075.075.105.12-.03.165a24.732,24.732,0,0,0-2.838,1.036c-.12.06-.12,0-.135-.09C64.3,76.963,64.3,76.587,64.3,76.227Z" transform="translate(-53.78 -62.194)" fill="#c3c1c2"/><path d="M223.4,76a.207.207,0,0,1,.045-.06,11.69,11.69,0,0,1,1.982-1.472,1.177,1.177,0,0,1,.36-.135c.225-.045.315.03.39.24a3.478,3.478,0,0,1,.09.676,15.177,15.177,0,0,1,.06,1.652c0,.09,0,.15-.12.105a25.9,25.9,0,0,0-2.748-.961A.207.207,0,0,0,223.4,76Z" transform="translate(-186.861 -62.183)" fill="#c3c1c2"/><path d="M43.082,106.686a9.584,9.584,0,0,0,.856-.481,11.478,11.478,0,0,1,3.619-1.231,5.255,5.255,0,0,1,1.081-.09c-.2.105-.345.3-.586.345-.015-.03-.03-.03-.06-.03-.015,0-.03.015-.015.03h0c-.06-.045-.105,0-.15.015a20.021,20.021,0,0,0-3.694,1.7,5.3,5.3,0,0,0-.481.315c-.135.12-.225.135-.345-.045C43.248,107.061,43.052,106.926,43.082,106.686Z" transform="translate(-36.61 -87.758)" fill="#c3c1c2"/><path d="M40.6,130.889c.3-.18.616-.36.916-.526a15.108,15.108,0,0,1,2.778-1.051,15.759,15.759,0,0,1,1.847-.451.406.406,0,0,1,.135,0c-.09.045-.2.09-.285.135-.345.18-.706.36-1.051.556a.1.1,0,0,0-.06.075c-.511.2-1.036.36-1.547.586a7.363,7.363,0,0,0-2.373,1.487.161.161,0,0,1-.075.045A1.813,1.813,0,0,1,40.6,130.889Z" transform="translate(-34.498 -107.798)" fill="#c3c1c2"/><path d="M228.812,108.464a7.181,7.181,0,0,0-1.712-.451,2.6,2.6,0,0,1,.736-.12,8.559,8.559,0,0,1,1.637.045,13.134,13.134,0,0,1,2.523.6.447.447,0,0,1-.225.27,4.227,4.227,0,0,0-.541.36.072.072,0,0,1-.105.015,5.069,5.069,0,0,0-2.222-.691A.161.161,0,0,1,228.812,108.464Z" transform="translate(-189.811 -90.299)" fill="#c3c1c2"/><path d="M232.292,120.264c-.135-.15-.345-.15-.511-.21-.556-.165-1.111-.3-1.682-.451.18-.015.375-.045.556-.06a13.225,13.225,0,0,1,2.778.165.98.98,0,0,0,.21,0,3.21,3.21,0,0,1,.736.616.116.116,0,0,1,.015.165c-.09.135-.165.285-.24.42-.03.045-.045.075-.105.03a5.891,5.891,0,0,0-1.652-.676c-.015-.015-.015-.03-.03-.015A.113.113,0,0,1,232.292,120.264Z" transform="translate(-192.363 -100.038)" fill="#c3c1c2"/><path d="M236.182,133.428c-.06-.15-.225-.18-.345-.24a10.682,10.682,0,0,0-1.337-.6,4.582,4.582,0,0,1,1.111.12,13.908,13.908,0,0,1,2.658.811,1.81,1.81,0,0,0,.405.12c.255.285.2.466-.015.781a.094.094,0,0,1-.12.03,22.2,22.2,0,0,0-2.313-.976C236.2,133.443,236.2,133.428,236.182,133.428Z" transform="translate(-195.432 -110.958)" fill="#c3c1c2"/><path d="M253.4,173.579a7.746,7.746,0,0,0,.36-1.186,14.184,14.184,0,0,0,.375-2.373c0-.045-.015-.12.075-.12a3.948,3.948,0,0,1,.135.826,15.608,15.608,0,0,1,.015,3.244c-.015.075,0,.15-.12.09C253.941,173.894,253.67,173.744,253.4,173.579Z" transform="translate(-211.494 -142.06)" fill="#c3c1c2"/><path d="M245,205.741a8.46,8.46,0,0,0,.631-1.141,12.987,12.987,0,0,1,.856,1.171.574.574,0,0,1,.06.631c-.12.285-.21.586-.33.871-.015,0-.03-.015-.045-.015A6.821,6.821,0,0,0,245,205.741Z" transform="translate(-205.025 -171.169)" fill="#c3c1c2"/><path d="M50.258,168.2a.382.382,0,0,1,.06.255,13.974,13.974,0,0,0,.571,3.529c.03.075.015.2.135.21l-.766.451c-.105.06-.09-.045-.09-.09-.06-.481-.09-.976-.105-1.472a15.872,15.872,0,0,1,.18-2.793A.1.1,0,0,1,50.258,168.2Z" transform="translate(-42.539 -140.623)" fill="#c3c1c2"/><path d="M55.268,205.3a3.306,3.306,0,0,0,.556.871,7.314,7.314,0,0,0-1.081,1.412,7.031,7.031,0,0,1-.375-.961.125.125,0,0,1,.03-.12A9.374,9.374,0,0,1,55.268,205.3Z" transform="translate(-45.494 -171.778)" fill="#c3c1c2"/><path d="M41.278,124.766a11.37,11.37,0,0,1,3.138-1.336c.06-.015.12-.015.18-.03h0c-.135.2-.375.255-.541.42-.03.03-.075.06-.075.105a12.476,12.476,0,0,0-2.493,1.246c-.075.045-.12.06-.15-.045A.762.762,0,0,1,41.278,124.766Z" transform="translate(-35.076 -103.275)" fill="#c3c1c2"/><path d="M249.9,197.461a4.553,4.553,0,0,0,.421-.961,6.818,6.818,0,0,1,.871.871.138.138,0,0,1,.03.15q-.09.428-.18.9C250.666,198.077,250.29,197.761,249.9,197.461Z" transform="translate(-208.52 -164.437)" fill="#c3c1c2"/><path d="M52.4,197.4c.09.225.18.451.285.676.045.09.045.21.18.255-.315.255-.631.5-.916.766-.06.06-.105.09-.135-.03-.045-.255-.105-.511-.165-.766a.138.138,0,0,1,.03-.15A4.29,4.29,0,0,1,52.4,197.4Z" transform="translate(-43.886 -165.2)" fill="#c3c1c2"/><path d="M260.9,162.3a7.5,7.5,0,0,0,.811.36c.06.015.045.06.03.105-.06.225-.12.436-.2.646-.045.135-.2.18-.315.24-.06.045-.075-.015-.075-.06C261.1,163.171,261.005,162.75,260.9,162.3Z" transform="translate(-217.868 -135.847)" fill="#c3c1c2"/><path d="M43.2,162.855c.345.09.526-.18.811-.255-.045.27-.09.541-.15.811-.015.105-.105.06-.165.03a1.128,1.128,0,0,1-.36-.345A1.342,1.342,0,0,0,43.2,162.855Z" transform="translate(-36.713 -136.121)" fill="#c3c1c2"/><path d="M74.2,131.905a1.076,1.076,0,0,1,.375-.105.731.731,0,0,1-.375.18A.067.067,0,0,0,74.2,131.905Z" transform="translate(-62.119 -110.365)" fill="#c3c1c2"/><path d="M245.2,124.565c.015-.015.03,0,.03.015C245.23,124.565,245.215,124.565,245.2,124.565Z" transform="translate(-205.302 -104.308)" fill="#fdfdfd"/><path d="M74.3,172.762a4.143,4.143,0,0,1,3.631-2.147,8.57,8.57,0,0,1,4.934,1.261c.174.105.347.2.521.3.122.09.191.075.3-.045.243-.285.469-.571.73-.856a5.479,5.479,0,0,1,2.849-1.682,5.115,5.115,0,0,1,4.482,1.021,10.11,10.11,0,0,1,1.494,1.517c.087.105.139.12.278.045a12.648,12.648,0,0,1,3.127-1.4,7.023,7.023,0,0,1,3.058-.18,3.7,3.7,0,0,1,2.154,1.216,4.52,4.52,0,0,1,.869,1.367l-.573-.676a4,4,0,0,0-2.258-1.321,6.794,6.794,0,0,0-3.422.225,13.264,13.264,0,0,0-2.519,1.156,1.071,1.071,0,0,0-.174.105c-.452.255-.678.225-.99-.15a13.288,13.288,0,0,0-1.32-1.382,4.4,4.4,0,0,0-2.241-1.081,4.6,4.6,0,0,0-3.492.841,7.865,7.865,0,0,0-1.477,1.457,3.419,3.419,0,0,1-.243.27.553.553,0,0,1-.782.105c-.434-.24-.851-.5-1.3-.706a7.452,7.452,0,0,0-5.941-.5,3.452,3.452,0,0,0-1.494,1.1l-.1.135Z" transform="translate(-63.143 -141.71)" fill="#1d1c1c"/><path d="M141.152,192.8a13.14,13.14,0,0,0-1.817-.661,2.676,2.676,0,0,1-1.276-.871c-.045-.045-.06-.105-.135-.015a3.686,3.686,0,0,1-1.757,1.036c-.39.12-.8.24-1.186.36a.617.617,0,0,1-.18.015c.451-.24.9-.405,1.336-.616a3.51,3.51,0,0,0,1.276-.916.94.94,0,0,0,.24-.631c-.015-.465,0-.931,0-1.412a.232.232,0,0,0-.135-.24,10.094,10.094,0,0,0-1.321-.706c-.2-.075-.225-.2-.21-.375a1.337,1.337,0,0,1,1.276-1.276,4.724,4.724,0,0,1,1.382.03,1.328,1.328,0,0,1,1.126,1.337.263.263,0,0,1-.165.27,10.085,10.085,0,0,0-1.261.661.271.271,0,0,0-.165.285c.015.345.015.691,0,1.021a1.767,1.767,0,0,0,.721,1.472,4.653,4.653,0,0,0,1.036.571,8.076,8.076,0,0,1,1.081.541C141.092,192.677,141.167,192.692,141.152,192.8Zm-2.027-5.661a2.156,2.156,0,0,0-2.4-.045A12.822,12.822,0,0,1,139.125,187.136Z" transform="translate(-112.597 -155.76)" fill="#1d1c1c"/><path d="M174,149.128a1.308,1.308,0,0,1,.465-.781,2.035,2.035,0,0,1,.961-.571.982.982,0,0,1,.946.2.676.676,0,0,1,.06,1.006,2.369,2.369,0,0,1-1.652.841A.66.66,0,0,1,174,149.128Z" transform="translate(-145.555 -123.628)" fill="#c3c1c2"/><path d="M120.6,149.836a2.27,2.27,0,0,1-1.7-.886.667.667,0,0,1-.09-.721.784.784,0,0,1,.691-.451,1.916,1.916,0,0,1,1.592.8,2.027,2.027,0,0,1,.225.39.628.628,0,0,1-.616.871Z" transform="translate(-99.337 -123.66)" fill="#c3c1c2"/><path d="M100.74,161.265c-1.637-.721-3.289-1.442-4.94-2.162A4.533,4.533,0,0,1,100.74,161.265Z" transform="translate(-80.069 -132.993)" fill="#1d1c1c"/><path d="M185.671,159c-1.652.721-3.3,1.442-4.97,2.177C181.03,159.763,184.349,158.307,185.671,159Z" transform="translate(-151.025 -132.888)" fill="#1d1c1c"/><path d="M66.4,209c.015-.03.03-.045.06-.03-.015.015-.03.03-.03.045A.047.047,0,0,1,66.4,209Z" transform="translate(-55.595 -174.975)" fill="#1d1c1c"/><path d="M238.1,194.7h.015v.015Z" transform="translate(-199.358 -163.036)" fill="#1d1c1c"/><path d="M64.2,200.662c.015,0,.03-.015.045,0s0,.03-.015.03C64.215,200.677,64.2,200.677,64.2,200.662Z" transform="translate(-53.753 -168.022)" fill="#1d1c1c"/><path d="M98.824,86.3a38.671,38.671,0,0,1,5.046.36c.571.075,1.141.06,1.7.165.285.045.586.09.871.165a1.318,1.318,0,0,1,1.1,1.352,32.342,32.342,0,0,1,.06,3.619,2.255,2.255,0,0,1-.3,1.156.748.748,0,0,1-.856.39c-1.066-.2-2.147-.375-3.229-.526-1.231-.165-2.478-.27-3.724-.315a35.561,35.561,0,0,0-4.385.12,30.263,30.263,0,0,0-3.679.586c-.721.15-1.427.3-2.162.39a1.079,1.079,0,0,1-1.336-1.021,11.19,11.19,0,0,1-.12-1.412c-.045-.781-.09-1.562-.105-2.343a1.265,1.265,0,0,1,1.126-1.457c.826-.225,1.667-.39,2.508-.556A38.311,38.311,0,0,1,98.824,86.3Zm-.18.27c-1.141,0-2.162.045-3.184.12a36.505,36.505,0,0,0-4.22.571c-.826.165-1.667.315-2.478.556a.952.952,0,0,0-.781,1.006v.165c.03.991.075,1.982.165,2.973a4.788,4.788,0,0,0,.12.916.764.764,0,0,0,.841.631.923.923,0,0,0,.21-.015c.616-.09,1.231-.2,1.847-.33A30.414,30.414,0,0,1,97.1,92.4a39.493,39.493,0,0,1,8.3.661l.991.18a.589.589,0,0,0,.781-.42,2.376,2.376,0,0,0,.135-.466,9.435,9.435,0,0,0,.06-1.126,27.245,27.245,0,0,0-.09-2.928,1.058,1.058,0,0,0-.841-1.021c-.33-.09-.676-.135-1.006-.2-.556-.09-1.126-.075-1.682-.15A35.653,35.653,0,0,0,98.644,86.57Z" transform="translate(-72.592 -72.066)" fill="#1d1c1c"/><path d="M63.3,123.13c.015-.015.03-.015.06-.03a.015.015,0,0,0,.015.015.135.135,0,0,1-.075.015Z" transform="translate(-52.999 -103.086)" fill="#c3c1c2"/><path d="M75.744,107.13c-.015-.015-.015-.03.015-.03s.045,0,.06.03Z" transform="translate(-63.41 -89.689)" fill="#1d1c1c"/><path d="M77.215,131.515H77.2V131.5A.015.015,0,0,0,77.215,131.515Z" transform="translate(-64.639 -110.12)" fill="#c3c1c2"/><path d="M150,188.8a12.869,12.869,0,0,0-2.4-.045A2.156,2.156,0,0,1,150,188.8Z" transform="translate(-123.483 -157.75)" fill="#fdfdfd"/><path d="M100.092,88.1a42.607,42.607,0,0,1,5.076.345c.556.075,1.126.06,1.682.15.33.06.676.105,1.006.2a1.046,1.046,0,0,1,.841,1.021,27.253,27.253,0,0,1,.09,2.928,9.435,9.435,0,0,1-.06,1.126,1.66,1.66,0,0,1-.135.466.589.589,0,0,1-.781.42l-.991-.18a39.491,39.491,0,0,0-8.3-.661,30.413,30.413,0,0,0-5.932.766c-.6.135-1.216.24-1.847.33a1.064,1.064,0,0,1-.21.015.752.752,0,0,1-.841-.631,4.636,4.636,0,0,1-.12-.916c-.09-.991-.12-1.982-.165-2.973v-.165a.965.965,0,0,1,.781-1.006,22.772,22.772,0,0,1,2.478-.556,40.1,40.1,0,0,1,4.22-.571C97.929,88.13,98.951,88.1,100.092,88.1ZM93.83,92.17c.225-.105.39-.315.631-.39.06-.015.06-.075.015-.09-.15-.09-.255-.225-.436-.255-.045,0-.045-.015-.045-.045,0-.255-.2-.5-.045-.751.015-.015,0-.06-.015-.06a2.14,2.14,0,0,0-.42-.2c-.09-.03-.12.105-.165.165-.06.075-.12.15-.21.12s-.06-.135-.075-.21a.1.1,0,0,1,.015-.09c.045-.09-.015-.105-.075-.105s-.105.015-.165.015c-.105.015-.225-.015-.3.045-.09.075.015.2.03.3.015.135-.03.18-.15.165l-.435-.045c-.09-.015-.135-.015-.105.105.105.511.2,1.021.285,1.532.045.27.045.255-.225.36-.165.075,0,.165.015.24s.045.21.135.24.09-.12.165-.15c.045-.015.075-.06.12-.075.255-.18.511-.375.781-.556.03-.03.09-.03.075-.12-.15.06-.3.12-.451.165-.045.015-.105.06-.12-.015-.045-.2-.075-.405-.105-.6,0-.015,0-.03.015-.03a1.128,1.128,0,0,1,.39-.075c.075-.015.09.075.105.12a1.587,1.587,0,0,0,1.216.931c.09.015.12,0,.135-.09a.559.559,0,0,1,.15-.33c.03-.03.09-.045.06-.09-.015-.045-.075-.03-.105-.03A2.142,2.142,0,0,1,93.83,92.17Zm7.3.21c.03,0,.045.015.06.015a3.026,3.026,0,0,0,1.487-.811,5.725,5.725,0,0,0,.6-.751c.06-.105.255-.12.225-.27-.03-.12-.18-.2-.255-.3a.131.131,0,0,0-.18-.06.953.953,0,0,1-.405.06c-.045,0-.09.015-.09-.045-.06-.255-.3-.285-.481-.36-.075-.03-.12.015-.075.075.09.12.03.21-.03.315a2.457,2.457,0,0,1-.781.886c-.045.03-.12.045-.12.12.015.015.015.015.03.015h.06a2.354,2.354,0,0,0,1.036-.571.264.264,0,0,1,.2-.09,2.243,2.243,0,0,0,.315-.03c.03,0,.075-.015.105.015a.066.066,0,0,1-.015.075,3.856,3.856,0,0,1-1.577,1.637C101.173,92.32,101.143,92.32,101.128,92.38Zm-9.641,2.237a37.746,37.746,0,0,1,15.722-.24A32.392,32.392,0,0,0,91.487,94.617Zm4.685-3.559a1.1,1.1,0,0,1,.39.255l.27.27c.09.09.21.135.315.03a.273.273,0,0,0,.045-.345.8.8,0,0,0-.225-.225,1.406,1.406,0,0,0-.481-.165c-.39-.075-.39-.075-.345-.465a.638.638,0,0,1,.03-.165.165.165,0,0,0-.105-.2,1.144,1.144,0,0,0-.586-.12.083.083,0,0,0-.075.045c0,.03.015.06.045.06.165.045.2.18.21.33a18.155,18.155,0,0,1,.12,1.817c0,.24.15.39.33.375.165-.015.225-.15.18-.42C96.263,91.794,96.233,91.434,96.173,91.058Zm8.379,1.592c.165,0,.3-.12.451-.18a3.684,3.684,0,0,0,1.727-1.442c.03-.03.09-.075.045-.12-.06-.06-.09.03-.12.06a5.689,5.689,0,0,1-2,1.111.394.394,0,0,1-.405-.03c-.03-.015-.045-.045-.075-.015-.03.015-.015.06-.015.09a1.274,1.274,0,0,0,.165.39A.242.242,0,0,0,104.552,92.65Zm-4.37-1.412c.105,0,.27.045.285-.135.015-.165-.105-.24-.255-.285a.611.611,0,0,0-.285,0c-.526.045-1.066.075-1.592.09-.12,0-.225,0-.3-.105a.055.055,0,0,0-.075-.03c-.045.03-.015.06-.015.09a.932.932,0,0,0,.21.375c.12.12.24.2.405.075a.292.292,0,0,1,.2-.045A7.5,7.5,0,0,1,100.182,91.238ZM90.2,90.488a.44.44,0,0,0,.42.466.455.455,0,0,0,.481-.435.443.443,0,0,0-.435-.466A.434.434,0,0,0,90.2,90.488Zm17.93-.526a.439.439,0,0,0-.435-.451.451.451,0,1,0-.015.9A.434.434,0,0,0,108.126,89.962ZM90.812,93.386a.451.451,0,1,0,0,.9.442.442,0,0,0,.451-.451A.473.473,0,0,0,90.812,93.386Zm17.479-.075a.462.462,0,0,0-.451-.45.452.452,0,0,0-.451.45.439.439,0,0,0,.436.451A.446.446,0,0,0,108.291,93.311ZM105.3,90.863a.426.426,0,0,0-.06-.2,1.229,1.229,0,0,0-.736-.33c-.015,0-.03.015-.045.015-.015.03,0,.045.015.06a.839.839,0,0,1,.315.526.252.252,0,0,0,.285.2C105.243,91.118,105.288,91,105.3,90.863Z" transform="translate(-74.041 -73.587)" fill="#f2ca66"/><path d="M107.695,104.407a2.639,2.639,0,0,0,.676.105c.045,0,.09-.015.105.03s-.045.075-.06.09a.482.482,0,0,0-.15.33c-.015.105-.045.12-.135.09a1.594,1.594,0,0,1-1.216-.931c-.015-.045-.03-.135-.105-.12a1.793,1.793,0,0,0-.39.075.052.052,0,0,0-.015.03c.03.2.06.405.105.6.015.075.075.03.12.015.15-.06.3-.105.451-.165.03.09-.03.09-.075.12-.255.18-.511.375-.781.556a.527.527,0,0,1-.12.075c-.09.03-.075.18-.165.15s-.105-.15-.135-.24c-.015-.075-.18-.165-.015-.24.255-.105.27-.09.225-.36-.09-.511-.18-1.021-.285-1.532-.015-.12.015-.12.105-.105.135.015.285.03.436.045.12,0,.165-.03.15-.165-.015-.105-.12-.225-.03-.3.06-.06.2-.03.3-.045.06,0,.105-.015.165-.015s.12,0,.075.105a.19.19,0,0,0-.015.09c.015.075-.015.18.075.21.105.03.165-.045.21-.12.045-.06.075-.2.165-.165a2.138,2.138,0,0,1,.42.2c.015,0,.015.045.015.06-.165.255.045.511.045.751,0,.03.015.03.045.045.18.03.285.165.436.255.045.03.045.075-.015.09C108.085,104.107,107.92,104.3,107.695,104.407Zm.03-.5c-.105.03-.225.09-.315.06-.165-.075-.3,0-.465.015a.61.61,0,0,0,.21.225c.285.21.315.2.511-.09l.09-.18a.052.052,0,0,1,.015-.03Zm-.405-.165a.353.353,0,0,1-.03-.12c0-.165-.06-.2-.225-.165-.21.045-.42.075-.631.12-.09.015-.15.045-.12.15.015.06.015.12.03.18s.03.09.105.075c.255-.045.511-.09.781-.135C107.289,103.836,107.334,103.821,107.319,103.746Zm-.105-.481a.774.774,0,0,0-.03-.165c-.015-.105-.045-.135-.165-.105a5.776,5.776,0,0,1-.706.12c-.12.015-.105.105-.075.18s-.045.24.135.21l.781-.135C107.214,103.356,107.244,103.326,107.214,103.266Z" transform="translate(-88.43 -85.751)" fill="#1d1c1c"/><path d="M167.075,102.184c0-.06.045-.075.075-.09a3.945,3.945,0,0,0,1.577-1.637c.015-.03.045-.045.015-.075s-.06-.015-.105-.015a2.241,2.241,0,0,1-.315.03.242.242,0,0,0-.2.09,2.593,2.593,0,0,1-1.036.571h-.06c-.015,0-.015-.015-.03-.015.015-.075.075-.09.12-.12a2.456,2.456,0,0,0,.781-.886c.06-.105.105-.2.03-.315-.045-.06,0-.105.075-.075.2.075.435.105.481.36.015.06.06.045.09.045a1.891,1.891,0,0,0,.405-.06.131.131,0,0,1,.18.06c.075.105.225.18.255.3.03.15-.15.18-.225.27a7.309,7.309,0,0,1-.6.751,2.962,2.962,0,0,1-1.487.811C167.12,102.2,167.105,102.184,167.075,102.184Z" transform="translate(-139.712 -83.368)" fill="#1d1c1c"/><path d="M103.3,125.367a32.575,32.575,0,0,1,15.722-.24A37.747,37.747,0,0,0,103.3,125.367Z" transform="translate(-85.823 -104.04)" fill="#1d1c1c"/><path d="M130.313,101.511c.045.39.09.736.15,1.1.045.27,0,.39-.18.42a.316.316,0,0,1-.33-.375,14.763,14.763,0,0,0-.12-1.817c-.015-.15-.045-.285-.21-.33-.03-.015-.06-.03-.045-.06,0-.03.045-.045.075-.045a1.113,1.113,0,0,1,.586.12.2.2,0,0,1,.105.2c-.015.06-.015.105-.03.165-.045.39-.045.405.345.466a1.407,1.407,0,0,1,.481.165.543.543,0,0,1,.225.225.256.256,0,0,1-.045.345c-.105.105-.225.045-.315-.03s-.18-.18-.27-.27A1.126,1.126,0,0,0,130.313,101.511Z" transform="translate(-108.423 -84.004)" fill="#1d1c1c"/><path d="M187.95,108.428a.306.306,0,0,1-.24-.135,1.794,1.794,0,0,1-.165-.39.071.071,0,0,1,.015-.09.066.066,0,0,1,.075.015c.12.12.27.075.405.03a5.462,5.462,0,0,0,2-1.111c.03-.03.06-.12.12-.06.045.045-.015.09-.045.12a3.772,3.772,0,0,1-1.727,1.442C188.235,108.292,188.115,108.413,187.95,108.428Z" transform="translate(-156.878 -89.273)" fill="#1d1c1c"/><path d="M148.453,106.247a9.032,9.032,0,0,0-1.427.015.462.462,0,0,0-.2.045c-.165.12-.285.045-.405-.075a.843.843,0,0,1-.21-.375c-.015-.03-.03-.075.015-.09a.055.055,0,0,1,.075.03.33.33,0,0,0,.3.105c.541,0,1.066-.045,1.592-.09a.909.909,0,0,1,.285,0c.135.045.27.12.255.285C148.708,106.292,148.558,106.247,148.453,106.247Z" transform="translate(-122.305 -88.551)" fill="#1d1c1c"/><path d="M94.7,101.535a.459.459,0,0,1,.451-.436.452.452,0,0,1,.435.466A.466.466,0,0,1,95.1,102,.437.437,0,0,1,94.7,101.535Zm.6.225c.135-.015.2-.09.18-.27a.216.216,0,0,0-.285-.21C95.416,101.43,95.431,101.55,95.3,101.761Z" transform="translate(-79.263 -84.641)" fill="#1d1c1c"/><path d="M209,97.95a.434.434,0,0,1-.45.451.451.451,0,1,1,.015-.9A.449.449,0,0,1,209,97.95Zm-.48-.3c.285.15.33.27.2.511.12-.015.18-.09.18-.24C208.881,97.755,208.746,97.65,208.52,97.65Z" transform="translate(-174.189 -81.628)" fill="#1d1c1c"/><path d="M96.166,123.3a.451.451,0,0,1-.015.9.455.455,0,0,1-.451-.466A.473.473,0,0,1,96.166,123.3Zm-.06.165c.33.135.375.33.15.556a.27.27,0,0,0,.255-.285C96.481,123.54,96.346,123.435,96.105,123.465Z" transform="translate(-80.105 -103.224)" fill="#1d1c1c"/><path d="M210.186,120.246a.442.442,0,0,1-.451.45.43.43,0,0,1-.435-.45.443.443,0,1,1,.886,0Zm-.5-.3c.135.06.255.105.285.27.015.15-.075.24-.2.33.225-.045.315-.165.3-.345C210.051,120.021,209.916,119.931,209.69,119.946Z" transform="translate(-175.194 -100.29)" fill="#1d1c1c"/><path d="M190.506,103.575c-.015.135-.06.255-.225.285a.248.248,0,0,1-.285-.2.839.839,0,0,0-.315-.526c-.015-.015-.03-.03-.015-.06.015-.015.03-.03.045-.015a1.148,1.148,0,0,1,.736.33C190.491,103.44,190.491,103.5,190.506,103.575Z" transform="translate(-158.755 -86.284)" fill="#1d1c1c"/><path d="M110.747,109.042a.07.07,0,0,1-.075.09c-.255.045-.511.09-.781.135-.075.015-.09-.015-.105-.075s-.015-.12-.03-.18c-.03-.105.03-.135.12-.15a4.663,4.663,0,0,0,.631-.12c.15-.03.225,0,.225.165A.188.188,0,0,0,110.747,109.042Z" transform="translate(-91.861 -91.04)" fill="#eec869"/><path d="M110.056,106.008c.015.06,0,.09-.06.105-.255.045-.526.105-.781.135-.18.03-.105-.135-.135-.21s-.045-.15.075-.18c.24-.03.481-.075.706-.12.105-.03.15,0,.165.105A.774.774,0,0,1,110.056,106.008Z" transform="translate(-91.284 -88.525)" fill="#eec869"/><path d="M114.711,111.93l-.09.18c-.2.285-.225.3-.511.09a.615.615,0,0,1-.21-.225c.165-.015.3-.09.465-.015.075.03.21-.03.315-.06C114.7,111.915,114.711,111.915,114.711,111.93Z" transform="translate(-95.342 -93.696)" fill="#eec869"/><path d="M119.1,111.9h.045a.052.052,0,0,1-.015.03C119.13,111.915,119.115,111.915,119.1,111.9Z" transform="translate(-99.72 -93.708)" fill="#eec869"/><path d="M98.105,102.744c.15-.225.12-.33-.105-.481a.216.216,0,0,1,.285.21Q98.308,102.744,98.105,102.744Z" transform="translate(-82.047 -85.621)" fill="#c3c1c2"/><path d="M210.9,98.492c.225-.015.36.09.375.27.015.15-.045.225-.18.24C211.23,98.777,211.2,98.642,210.9,98.492Z" transform="translate(-176.563 -82.468)" fill="#c3c1c2"/><path d="M98.4,124.374c.24-.03.375.09.39.27a.246.246,0,0,1-.255.285C98.775,124.7,98.73,124.509,98.4,124.374Z" transform="translate(-82.379 -104.131)" fill="#c3c1c2"/><path d="M211.9,120.791c.225-.015.36.075.39.255.03.165-.075.3-.3.345.12-.09.225-.18.2-.33S212.035,120.851,211.9,120.791Z" transform="translate(-177.399 -101.132)" fill="#c3c1c2"/></g></g></svg>