<svg xmlns="http://www.w3.org/2000/svg" xmlns:xlink="http://www.w3.org/1999/xlink" width="28" height="28" viewBox="0 0 28 28"><defs><clipPath id="a"><rect width="28" height="28" transform="translate(-0.311 -0.121)" fill="none"/></clipPath></defs><g transform="translate(0.311 0.121)" clip-path="url(#a)"><path d="M19.114,26.056H7.577A4.327,4.327,0,0,1,3.25,21.73V12.165a4.361,4.361,0,0,1,.462-1.973L7,3.638A4.292,4.292,0,0,1,10.865,1.25h8.25a4.327,4.327,0,0,1,4.327,4.327V21.73a4.327,4.327,0,0,1-4.327,4.327ZM10.865,2.981A2.6,2.6,0,0,0,8.546,4.423L5.269,11a2.55,2.55,0,0,0-.277,1.154V21.73a2.6,2.6,0,0,0,2.584,2.6H19.114a2.6,2.6,0,0,0,2.6-2.6V5.577a2.6,2.6,0,0,0-2.6-2.6Z" transform="translate(-0.161 0.629)" fill="#fff"/><path d="M15.615,12.75a.877.877,0,0,1-.865-.865V6.115a.865.865,0,1,1,1.731,0v5.769a.877.877,0,0,1-.865.865Z" transform="translate(1.608 0.909)" fill="#fff"/><path d="M10.615,12.75a.877.877,0,0,1-.865-.865V6.115a.865.865,0,1,1,1.731,0v5.769a.877.877,0,0,1-.865.865Z" transform="translate(0.839 0.909)" fill="#fff"/></g></svg>