<svg xmlns="http://www.w3.org/2000/svg" xmlns:xlink="http://www.w3.org/1999/xlink" width="26.865" height="28" viewBox="0 0 26.865 28"><defs><clipPath id="a"><rect width="26.865" height="28" transform="translate(0 0)" fill="none"/></clipPath></defs><g clip-path="url(#a)"><path d="M21.563,26.279H5.958A4.728,4.728,0,0,1,1.3,21.563V5.958A4.728,4.728,0,0,1,6.016,1.3H21.563a4.728,4.728,0,0,1,4.716,4.658v15.6A4.728,4.728,0,0,1,21.563,26.279ZM5.958,2.989a2.981,2.981,0,0,0-2.97,2.97v15.6a2.981,2.981,0,0,0,2.97,2.97h15.6a2.981,2.981,0,0,0,2.97-2.97V5.958a2.981,2.981,0,0,0-2.97-2.97Z" transform="translate(-0.3 0.453)" fill="#fff"/><path d="M14.438,11.84a.92.92,0,0,1-.606-.221.873.873,0,0,1,0-1.234l1.4-1.4H8.813a.873.873,0,1,1,0-1.747h8.513a.85.85,0,0,1,.8.536.862.862,0,0,1-.186.955l-2.888,2.888A.873.873,0,0,1,14.438,11.84Z" transform="translate(0.792 1.43)" fill="#fff"/><path d="M16.525,9.357a.92.92,0,0,1-.617-.256L13.031,6.2a.873.873,0,0,1,0-1.165.862.862,0,0,1,1.234,0l2.888,2.888a.873.873,0,0,1,0,1.234A.9.9,0,0,1,16.525,9.357Z" transform="translate(1.593 1.025)" fill="#fff"/><path d="M11.012,19.925a.827.827,0,0,1-.617-.256L7.507,16.781a.862.862,0,0,1-.2-.943.885.885,0,0,1,.815-.547H16.66a.873.873,0,0,1,0,1.747H10.232l1.386,1.409a.873.873,0,0,1,0,1.234.862.862,0,0,1-.606.245Z" transform="translate(0.678 2.755)" fill="#fff"/><path d="M8.124,17.461a.85.85,0,0,1-.617-.256.862.862,0,0,1,0-1.234l2.946-2.923a.873.873,0,1,1,1.165,1.269L8.741,17.2a.862.862,0,0,1-.617.256Z" transform="translate(0.678 2.33)" fill="#fff"/></g></svg>