<svg xmlns="http://www.w3.org/2000/svg" width="50" height="50" viewBox="0 0 50 50"><circle cx="25" cy="25" r="25" fill="#5c55f2"/><g transform="translate(9.751 16.15)"><g transform="translate(0 0)"><g transform="translate(24.196 14.41)"><text transform="translate(2.009 4.001)" fill="#2fea91" font-size="4" font-family="SegoeUIBlack, Segoe UI"><tspan x="0" y="0">c</tspan></text><path d="M13.7,6.4A2.977,2.977,0,1,1,10.72,9.377,2.974,2.974,0,0,1,13.7,6.4Zm0,.474a2.5,2.5,0,1,1-2.5,2.5,2.512,2.512,0,0,1,2.5-2.5Z" transform="translate(-10.72 -6.4)" fill="#2fea91" fill-rule="evenodd"/></g><path d="M9.819,7.857H3.55v-1.8C3.55,2.242,5.647.01,9.684.01h4.578V5.039H11.352A1.434,1.434,0,0,0,9.8,6.595V7.88Z" transform="translate(4.478 -0.01)" fill="#2fea91" fill-rule="evenodd"/><path d="M.013,9.6V3.33h1.8c3.811,0,6.043,2.1,6.043,6.134v4.578H2.831V11.132A1.434,1.434,0,0,0,1.275,9.576H-.01Z" transform="translate(0.01 4.157)" fill="#2fea91" fill-rule="evenodd"/><path d="M6.78,10.258,6.8,11.7H21.46V6.672H16.7V1.17h-1.33Z" transform="translate(8.532 1.446)" fill="#2fea91" fill-rule="evenodd"/></g></g></svg>