<svg xmlns="http://www.w3.org/2000/svg" width="50" height="50" viewBox="0 0 50 50"><g transform="translate(5.093 3.157)"><circle cx="25" cy="25" r="25" transform="translate(-5.093 -3.157)" fill="#fff"/><g transform="translate(-5.093 -3.157)"><path d="M224.171,303.186l3.554-9.384h-7.108Z" transform="translate(-199.631 -266.103)" fill="#f8b94b"/><path d="M32,6.959a25,25,0,1,0,25,25A25,25,0,0,0,32,6.959ZM44.757,36.437H37.385L33.041,47.908a1.663,1.663,0,0,1-3.044,0L25.652,36.437h-6.41a1.543,1.543,0,0,1,0-3.087H44.757a1.543,1.543,0,0,1,0,3.087Zm0-5.967H19.243a1.543,1.543,0,1,1,0-3.087h2.981l-3.181-8.4a1.548,1.548,0,0,1,.9-1.99h0a1.548,1.548,0,0,1,1.99.9l3.6,9.493H37.513l3.6-9.493a1.543,1.543,0,1,1,2.886,1.093l-3.181,8.4h3.944a1.543,1.543,0,0,1,0,3.087Z" transform="translate(-7 -6.959)" fill="#f8b94b"/></g></g></svg>