<svg xmlns="http://www.w3.org/2000/svg" width="346.063" height="164" viewBox="0 0 346.063 164">
  <g id="vetted_scammers" transform="translate(-2579 -1502)">
    <g id="dummy">
      <g id="Rectangle_1618" data-name="Rectangle 1618" transform="translate(2579 1502)" fill="#fff" stroke="#cbd6d5" stroke-width="2">
        <rect width="240" height="48" rx="10" stroke="none"/>
        <rect x="1" y="1" width="238" height="46" rx="9" fill="none"/>
      </g>
      <circle id="Ellipse_13" data-name="Ellipse 13" cx="12" cy="12" r="12" transform="translate(2589 1509)" fill="#cbd6d5"/>
      <rect id="Rectangle_1619" data-name="Rectangle 1619" width="112" height="8" rx="4" transform="translate(2620 1509)" fill="#cbd6d5"/>
      <rect id="Rectangle_1621" data-name="Rectangle 1621" width="37" height="8" rx="4" transform="translate(2774 1509)" fill="#cbd6d5"/>
      <rect id="Rectangle_1620" data-name="Rectangle 1620" width="75" height="9" rx="4.5" transform="translate(2620 1524)" fill="#cbd6d5"/>
    </g>
    <g id="dummy-2" data-name="dummy" transform="translate(0 58)">
      <g id="Rectangle_1618-2" data-name="Rectangle 1618" transform="translate(2579 1502)" fill="#fff" stroke="#cbd6d5" stroke-width="2">
        <rect width="240" height="48" rx="10" stroke="none"/>
        <rect x="1" y="1" width="238" height="46" rx="9" fill="none"/>
      </g>
      <circle id="Ellipse_13-2" data-name="Ellipse 13" cx="12" cy="12" r="12" transform="translate(2589 1509)" fill="#cbd6d5"/>
      <rect id="Rectangle_1619-2" data-name="Rectangle 1619" width="112" height="8" rx="4" transform="translate(2620 1509)" fill="#cbd6d5"/>
      <rect id="Rectangle_1621-2" data-name="Rectangle 1621" width="37" height="8" rx="4" transform="translate(2774 1509)" fill="#cbd6d5"/>
      <rect id="Rectangle_1620-2" data-name="Rectangle 1620" width="95" height="9" rx="4.5" transform="translate(2620 1524)" fill="#cbd6d5"/>
    </g>
    <g id="dummy-3" data-name="dummy" transform="translate(0 116)">
      <g id="Rectangle_1618-3" data-name="Rectangle 1618" transform="translate(2579 1502)" fill="#fff" stroke="#355a9b" stroke-width="2">
        <rect width="240" height="48" rx="10" stroke="none"/>
        <rect x="1" y="1" width="238" height="46" rx="9" fill="none"/>
      </g>
      <circle id="Ellipse_13-3" data-name="Ellipse 13" cx="12" cy="12" r="12" transform="translate(2589 1509)" fill="#355a9b"/>
      <rect id="Rectangle_1619-3" data-name="Rectangle 1619" width="112" height="8" rx="4" transform="translate(2620 1509)" fill="#355a9b"/>
      <rect id="Rectangle_1621-3" data-name="Rectangle 1621" width="37" height="8" rx="4" transform="translate(2774 1509)" fill="#355a9b"/>
      <rect id="Rectangle_1620-3" data-name="Rectangle 1620" width="112" height="9" rx="4.5" transform="translate(2620 1524)" fill="#355a9b"/>
    </g>
    <path id="Path_6889" data-name="Path 6889" d="M2901.358,1608.825s11.85-17.65,15.35-38.325-2.85-43.325-37.175-45.167" transform="translate(6.467)" fill="none" stroke="#355a9b" stroke-linecap="round" stroke-width="2"/>
    <path id="Path_6894" data-name="Path 6894" d="M473.192,1463.75l-7.369,7.369,7.369,7.369" transform="translate(1405.725 1252.467) rotate(-59)" fill="none" stroke="#355a9b" stroke-linecap="round" stroke-linejoin="round" stroke-width="2"/>
    <g id="exclamation-circle-Light" transform="translate(2875 1622)">
      <rect id="Path" width="40" height="40" fill="rgba(255,255,255,0)"/>
      <path id="exclamation-circle-Light_1_" d="M317.333,351.5a15.833,15.833,0,1,0,15.833,15.833A15.852,15.852,0,0,0,317.333,351.5Zm0,30A14.167,14.167,0,1,1,331.5,367.333,14.183,14.183,0,0,1,317.333,381.5Z" transform="translate(-297.333 -347.333)" fill="#355a9b"/>
      <path id="shield-Light_1_" d="M751.158,355.526c-2.926-.976-6.855-2.932-7.787-3.877a.5.5,0,0,0-.352-.149.518.518,0,0,0-.355.144,20.249,20.249,0,0,1-7.8,4.005.5.5,0,0,0-.364.481c0,8.271,1.208,12.306,8.364,14.351a.5.5,0,0,0,.274,0c7.155-2.044,8.362-6.12,8.362-14.481A.5.5,0,0,0,751.158,355.526ZM743,369.479c-6.351-1.86-7.466-5.386-7.5-12.974a22.234,22.234,0,0,0,7.523-3.837,32.632,32.632,0,0,0,7.475,3.689C750.467,364.049,749.356,367.617,743,369.479Z" transform="translate(-723 -341)" fill="#355a9b" stroke="#355a9b" stroke-width="0.7"/>
    </g>
    <g id="exclamation-circle-Light-2" data-name="exclamation-circle-Light" transform="translate(2833 1505)">
      <rect id="Path-2" data-name="Path" width="40" height="40" fill="rgba(255,255,255,0)"/>
      <path id="exclamation-circle-Light_1_2" data-name="exclamation-circle-Light_1_" d="M317.333,351.5a15.833,15.833,0,1,0,15.833,15.833A15.852,15.852,0,0,0,317.333,351.5Zm0,30A14.167,14.167,0,1,1,331.5,367.333,14.183,14.183,0,0,1,317.333,381.5Zm1.25-7.5a1.25,1.25,0,1,1-1.25-1.25A1.25,1.25,0,0,1,318.583,374Zm-2.083-6.667v-6.667a.833.833,0,1,1,1.667,0v6.667a.833.833,0,1,1-1.667,0Z" transform="translate(-297.333 -347.333)" fill="#355a9b"/>
    </g>
  </g>
</svg>
